<?xml version="1.0" encoding="UTF-8"?>
<!-- Generator: Adobe Illustrator 21.1.0, SVG Export Plug-In . SVG Version: 6.00 Build 0)  -->
<svg version="1.1" id="Ebene_1" xmlns="http://www.w3.org/2000/svg" xmlns:xlink="http://www.w3.org/1999/xlink" x="0px" y="0px" viewBox="0 0 476.5 68" style="enable-background:new 0 0 476.5 68;" xml:space="preserve">
<style type="text/css">
	.st0{fill:#0075A0;}
	.st1{fill:#3A9ABE;}
	.st2{fill:#7DB6D2;}
	.st3{fill:#CCE1EE;}
</style>
<g>
	<g>
		<path d="M73.2,67.3V21.2h10.4v46.1H73.2z"/>
		<path d="M118.1,67.3c0,0-8-14.5-13-23.7c-0.7-1.4-2.2-4.7-2.2-4.7s0.2,3.5,0.2,5c0,9.1,0,23.4,0,23.4h-9.2V21.2h9.2    c0,0,8.2,15,13.4,24.5c0.5,1.1,2,4.9,2,4.9s-0.4-3.7-0.4-4.9c0-9.5,0-24.5,0-24.5h9.2v46.1H118.1z"/>
		<path d="M152.5,67.3h-15.9V21.2h16.4c11.6,0,19.6,7.5,19.6,24.4C172.7,59.3,165.3,67.3,152.5,67.3z M150.7,28.3h-4.3v32h5.1    c6.9,0,10.6-3.5,10.6-15.8C162.1,32.2,157.3,28.3,150.7,28.3z"/>
		<path d="M197.1,68c-12.8,0-16.7-5.8-16.7-15V21.2h10.1V52c0,5.8,1.2,8.8,6.7,8.8c6.1,0,6.8-3.8,6.8-8.8V21.2h10V53    C213.9,62.3,209.2,68,197.1,68z"/>
		<path d="M236.6,68c-10.5,0-16.1-4.3-16.1-11.4c0-1.6,0.3-2.5,0.6-3.6l9.6-0.3c-0.3,0.8-0.6,1.7-0.6,3.1c0,3.3,1.7,5.5,6.5,5.5    c4.6,0,7.3-1.7,7.3-5.8c0-3.2-1.8-5.3-8.8-8l-6.8-2.6c-5.5-2.1-7.5-6.4-7.5-11.5c0-7.5,5.2-13,15.7-13c8.6,0,14.3,4.5,14.3,11.1    c0,0.8-0.2,2.2-0.6,3.2l-9,0.2c0.2-0.6,0.3-1.3,0.3-2.2c0-4.3-2.2-5.8-5.8-5.8c-3.5,0-5.6,1.7-5.6,4.4c0,3.1,1.8,4.5,6.4,6.4    l7.6,3.1c6.5,2.6,9.5,7.3,9.5,12.8C253.8,63.2,248,68,236.6,68z"/>
		<path d="M278.6,28.8v38.5h-10.3V28.8H257v-7.6h32.9v7.6H278.6z"/>
		<path d="M318.1,67.3c-1.3-0.9-1.6-3.2-1.8-5.3c-0.1-1.4-0.1-4.9-0.1-7.2c-0.1-3.2-1.3-5.7-5.6-5.7h-4.5v18.2h-10.3V21.2H312    c10.5,0,16,4.8,16,13.7c0,7.1-4.5,9.1-9.2,10c5.9,0.9,7.8,4.9,8,12.4c0.1,1.8,0.2,3.7,0.2,4.8c0.1,1.9,0.8,4.4,1.7,5.2H318.1z     M308.9,28.3h-2.8v13.3h4c4.6,0,7.3-1.5,7.3-6.5C317.4,30.4,314.2,28.3,308.9,28.3z"/>
	</g>
	<g>
		<path d="M336.7,67.3V21.2H347v46.1H336.7z"/>
	</g>
	<g>
		<path d="M357.4,67.3V21.2h27.9v7.4h-17.8v11.1h16v7.8h-16v12.4h19.3v7.4H357.4z"/>
		<path d="M422.1,57.7v9.6h-8.3v-9.6h-17.9v-8.9L411,21.2h11.1v29.3h4.4v7.2H422.1z M413.8,32.2l-10.9,18.4h10.9V32.2z"/>
	</g>
	<g>
		<path d="M462,68c-10.4,0-14.5-6.2-14.5-21.5c0-17.5,2.8-26,14.5-26c10.6,0,14.6,8.8,14.6,25.9C476.5,61.1,472,68,462,68z     M462,27.3c-3.8,0-4.7,2.6-4.7,17.5c0,12,0.8,16.4,4.7,16.4c3.9,0,4.8-3.6,4.8-16.4C466.8,29.9,465.3,27.3,462,27.3z"/>
	</g>
</g>
<g>
	<path d="M105.6,6.5h-1.5v3.9h-1.7V0.3h2.9c2.2,0,3.5,0.8,3.5,3.1C108.8,5.7,107.5,6.5,105.6,6.5z M105.6,1.6h-1.5v3.6h1.6   c0.7,0,1.4-0.6,1.4-1.8C107.1,2.2,106.4,1.6,105.6,1.6z"/>
	<path d="M128.4,10.4V0.3h1.7V9h3.7v1.3H128.4z"/>
	<path d="M158.8,10.4l-0.5-2.2h-3.1l-0.5,2.2H153l2.6-10.1h2.2l2.7,10.1H158.8z M156.6,1.8l-1.1,4.9h2.4L156.6,1.8z"/>
	<path d="M182.6,1.6v8.8h-1.7V1.6h-2.5V0.3h6.6v1.3H182.6z"/>
	<path d="M208.2,1.6v8.8h-1.7V1.6h-2.5V0.3h6.6v1.3H208.2z"/>
	<path d="M231.8,1.6v3.1h3.5V6h-3.5v4.3h-1.6V0.3h5.4v1.3H231.8z"/>
	<path d="M258.7,10.5c-2.5,0-3.9-1.2-3.9-5.2c0-3.8,1.6-5.2,3.9-5.2c2.3,0,3.9,1.4,3.9,5.2C262.6,9.4,261.1,10.5,258.7,10.5z    M258.7,1.4c-1.3,0-2.1,0.8-2.1,4c0,3.3,0.8,3.9,2.1,3.9c1.2,0,2.2-0.6,2.2-3.9C260.9,2.1,259.9,1.4,258.7,1.4z"/>
	<path d="M287.1,10.4c-0.2-0.3-0.3-0.7-0.3-1.2c0-0.3,0-1.2,0-1.7c0-0.6-0.4-1.2-1.3-1.2h-1.5v4.1h-1.7V0.3h3.2c2.1,0,3.2,1.1,3.2,3   c0,1.6-0.8,2.1-1.7,2.4c1,0.1,1.5,1,1.5,2.6c0,0.4,0,0.8,0,1.1c0,0.4,0.1,0.9,0.2,1.1H287.1z M285.4,1.6h-1.3v3.3h1.5   c1,0,1.6-0.5,1.6-1.6S286.5,1.6,285.4,1.6z"/>
	<path d="M316.1,10.4V2.2l-2.3,8.1h-1.5l-2-8.1v8.1h-1.5V0.3h2.5l1.9,7.6l2.1-7.6h2.4v10.1H316.1z"/>
</g>
<rect x="73.2" class="st0" width="10.4" height="10.4"/>
<rect x="336.7" class="st0" width="10.4" height="10.4"/>
<rect x="432" y="57.1" class="st0" width="10.4" height="10.4"/>
<rect x="53.9" y="38.2" class="st0" width="10.3" height="29.3"/>
<rect x="35.9" y="46.8" class="st1" width="10.3" height="20.7"/>
<rect x="18" y="54" class="st2" width="10.3" height="13.5"/>
<rect y="61.8" class="st3" width="10.3" height="5.7"/>
</svg>